<svg width="1200" height="1200" viewBox="0 0 1200 1200" fill="none" xmlns="http://www.w3.org/2000/svg">
<rect width="1200" height="1200" fill="white"/>
<path opacity="0.23" d="M295.87 875.377C240.615 820.121 202.985 749.721 187.74 673.08C172.495 596.438 180.32 516.997 210.224 444.802C240.128 372.608 290.769 310.902 355.742 267.488C420.716 224.074 497.104 200.902 575.247 200.902C653.39 200.902 729.778 224.074 794.752 267.488C859.725 310.902 910.366 372.608 940.27 444.802C970.174 516.997 977.998 596.438 962.753 673.08C947.508 749.721 909.879 820.121 854.623 875.377" stroke="#8C8C8C" stroke-width="10" stroke-dasharray="1 6"/>
<path d="M293 878.5L299.5 872" stroke="black"/>
<path d="M857.5 878.5L851 872" stroke="black"/>
<path d="M857.5 314L851 320.5" stroke="black"/>
<path d="M298 308L304.5 314.5" stroke="black"/>
<path d="M176 602.596H185.192" stroke="black"/>
<path d="M966 602.596H975.192" stroke="black"/>
<path d="M581.596 196V205.192" stroke="black"/>
<path opacity="0.23" d="M369.37 801.877C328.652 761.158 300.922 709.279 289.688 652.801C278.454 596.323 284.219 537.782 306.256 484.58C328.293 431.379 365.611 385.907 413.491 353.915C461.371 321.922 517.662 304.847 575.247 304.847C632.832 304.847 689.123 321.922 737.003 353.915C784.883 385.907 822.201 431.379 844.238 484.58C866.274 537.782 872.04 596.323 860.806 652.801C849.572 709.279 821.842 761.158 781.123 801.877" stroke="black" stroke-width="2" stroke-dasharray="2 36"/>
<path d="M328.08 887.42C331.84 887.42 333.5 890.36 333.5 894.02C333.5 899 331.26 902.16 327.82 902.16C325.26 902.16 323.22 900.72 322.98 898.2H324.68C324.76 899.66 326.02 900.7 327.82 900.7C330.3 900.7 331.84 898.24 331.94 894.68C331.32 896.06 329.8 897.14 327.82 897.14C325.08 897.14 322.94 895.08 322.94 892.28C322.94 889.36 325.08 887.42 328.08 887.42ZM328.08 888.88C326.1 888.88 324.64 890.32 324.64 892.3C324.64 894.28 326.1 895.72 328.08 895.72C330.06 895.72 331.54 894.28 331.54 892.3C331.54 890.32 330.06 888.88 328.08 888.88ZM343.142 902V898.34H335.442V896.84L342.822 887.58H344.782V896.86H346.902V898.34H344.782V902H343.142ZM337.262 896.86H343.142V889.42L337.262 896.86Z" fill="#8C8C8C"/>
<path d="M257.08 278.42C260.84 278.42 262.5 281.36 262.5 285.02C262.5 290 260.26 293.16 256.82 293.16C254.26 293.16 252.22 291.72 251.98 289.2H253.68C253.76 290.66 255.02 291.7 256.82 291.7C259.3 291.7 260.84 289.24 260.94 285.68C260.32 287.06 258.8 288.14 256.82 288.14C254.08 288.14 251.94 286.08 251.94 283.28C251.94 280.36 254.08 278.42 257.08 278.42ZM257.08 279.88C255.1 279.88 253.64 281.32 253.64 283.3C253.64 285.28 255.1 286.72 257.08 286.72C259.06 286.72 260.54 285.28 260.54 283.3C260.54 281.32 259.06 279.88 257.08 279.88ZM270.102 293.16C266.362 293.16 264.702 290.22 264.702 286.56C264.702 281.58 266.942 278.42 270.382 278.42C272.942 278.42 274.982 279.86 275.222 282.38H273.522C273.442 280.92 272.182 279.88 270.382 279.88C267.902 279.88 266.362 282.34 266.262 285.9C266.882 284.52 268.402 283.44 270.382 283.44C273.102 283.44 275.262 285.5 275.262 288.3C275.262 291.22 273.102 293.16 270.102 293.16ZM270.122 291.7C272.102 291.7 273.562 290.26 273.562 288.28C273.562 286.3 272.102 284.86 270.122 284.86C268.142 284.86 266.662 286.3 266.662 288.28C266.662 290.26 268.142 291.7 270.122 291.7Z" fill="#8C8C8C"/>
<path d="M821.4 902V891.32H818.34V890.04C820.98 890.02 821.7 889.6 821.78 887.58H823.06V902H821.4ZM831.361 902.16C827.761 902.16 825.941 899.18 825.941 894.78C825.941 890.4 827.761 887.42 831.361 887.42C834.941 887.42 836.781 890.38 836.781 894.78C836.781 899.2 834.941 902.16 831.361 902.16ZM831.361 900.68C833.801 900.68 835.101 898.3 835.101 894.78C835.101 891.28 833.801 888.9 831.361 888.9C828.921 888.9 827.621 891.26 827.621 894.78C827.621 898.32 828.921 900.68 831.361 900.68ZM844.437 902.16C840.837 902.16 839.017 899.18 839.017 894.78C839.017 890.4 840.837 887.42 844.437 887.42C848.017 887.42 849.857 890.38 849.857 894.78C849.857 899.2 848.017 902.16 844.437 902.16ZM844.437 900.68C846.877 900.68 848.177 898.3 848.177 894.78C848.177 891.28 846.877 888.9 844.437 888.9C841.997 888.9 840.697 891.26 840.697 894.78C840.697 898.32 841.997 900.68 844.437 900.68Z" fill="#8C8C8C"/>
<path d="M879.08 285.42C882.84 285.42 884.5 288.36 884.5 292.02C884.5 297 882.26 300.16 878.82 300.16C876.26 300.16 874.22 298.72 873.98 296.2H875.68C875.76 297.66 877.02 298.7 878.82 298.7C881.3 298.7 882.84 296.24 882.94 292.68C882.32 294.06 880.8 295.14 878.82 295.14C876.08 295.14 873.94 293.08 873.94 290.28C873.94 287.36 876.08 285.42 879.08 285.42ZM879.08 286.88C877.1 286.88 875.64 288.32 875.64 290.3C875.64 292.28 877.1 293.72 879.08 293.72C881.06 293.72 882.54 292.28 882.54 290.3C882.54 288.32 881.06 286.88 879.08 286.88ZM891.802 300.16C888.742 300.16 886.662 298.6 886.662 295.98C886.662 294.3 887.762 292.9 889.382 292.4C888.062 291.82 887.142 290.54 887.142 289.28C887.142 286.98 889.002 285.42 891.802 285.42C894.602 285.42 896.462 286.98 896.462 289.28C896.462 290.54 895.542 291.82 894.222 292.4C895.822 292.9 896.942 294.3 896.942 295.98C896.942 298.6 894.862 300.16 891.802 300.16ZM891.802 298.72C893.882 298.72 895.262 297.7 895.262 296C895.262 294.32 893.882 293.2 891.802 293.2C889.722 293.2 888.342 294.32 888.342 296C888.342 297.7 889.722 298.72 891.802 298.72ZM891.802 291.8C893.582 291.8 894.802 290.76 894.802 289.34C894.802 287.9 893.602 286.86 891.802 286.86C890.002 286.86 888.802 287.9 888.802 289.34C888.802 290.76 890.042 291.8 891.802 291.8Z" fill="#8C8C8C"/>
<path d="M567.08 169.42C570.84 169.42 572.5 172.36 572.5 176.02C572.5 181 570.26 184.16 566.82 184.16C564.26 184.16 562.22 182.72 561.98 180.2H563.68C563.76 181.66 565.02 182.7 566.82 182.7C569.3 182.7 570.84 180.24 570.94 176.68C570.32 178.06 568.8 179.14 566.82 179.14C564.08 179.14 561.94 177.08 561.94 174.28C561.94 171.36 564.08 169.42 567.08 169.42ZM567.08 170.88C565.1 170.88 563.64 172.32 563.64 174.3C563.64 176.28 565.1 177.72 567.08 177.72C569.06 177.72 570.54 176.28 570.54 174.3C570.54 172.32 569.06 170.88 567.08 170.88ZM575.87 184C576.15 179.52 578.23 174.76 582.01 171.06H573.75V169.58H583.71V171.08C579.75 175.1 577.75 179.88 577.51 184H575.87Z" fill="#8C8C8C"/>
<path d="M134.08 589.42C137.84 589.42 139.5 592.36 139.5 596.02C139.5 601 137.26 604.16 133.82 604.16C131.26 604.16 129.22 602.72 128.98 600.2H130.68C130.76 601.66 132.02 602.7 133.82 602.7C136.3 602.7 137.84 600.24 137.94 596.68C137.32 598.06 135.8 599.14 133.82 599.14C131.08 599.14 128.94 597.08 128.94 594.28C128.94 591.36 131.08 589.42 134.08 589.42ZM134.08 590.88C132.1 590.88 130.64 592.32 130.64 594.3C130.64 596.28 132.1 597.72 134.08 597.72C136.06 597.72 137.54 596.28 137.54 594.3C137.54 592.32 136.06 590.88 134.08 590.88ZM146.642 604.16C143.842 604.16 141.782 602.58 141.482 599.92H143.082C143.342 601.6 144.722 602.68 146.602 602.68C148.622 602.68 149.942 601.3 149.942 599.24C149.942 597.12 148.582 595.8 146.462 595.8C144.962 595.8 143.982 596.5 143.442 597.5H141.902L143.002 589.58H151.022V591.06H144.262L143.602 595.58C144.382 594.88 145.562 594.38 146.642 594.38C149.642 594.38 151.622 596.32 151.622 599.24C151.622 602.2 149.662 604.16 146.642 604.16Z" fill="#8C8C8C"/>
<path d="M998.08 589.42C1001.84 589.42 1003.5 592.36 1003.5 596.02C1003.5 601 1001.26 604.16 997.82 604.16C995.26 604.16 993.22 602.72 992.98 600.2H994.68C994.76 601.66 996.02 602.7 997.82 602.7C1000.3 602.7 1001.84 600.24 1001.94 596.68C1001.32 598.06 999.8 599.14 997.82 599.14C995.08 599.14 992.94 597.08 992.94 594.28C992.94 591.36 995.08 589.42 998.08 589.42ZM998.08 590.88C996.1 590.88 994.64 592.32 994.64 594.3C994.64 596.28 996.1 597.72 998.08 597.72C1000.06 597.72 1001.54 596.28 1001.54 594.3C1001.54 592.32 1000.06 590.88 998.08 590.88ZM1010.88 589.42C1014.64 589.42 1016.3 592.36 1016.3 596.02C1016.3 601 1014.06 604.16 1010.62 604.16C1008.06 604.16 1006.02 602.72 1005.78 600.2H1007.48C1007.56 601.66 1008.82 602.7 1010.62 602.7C1013.1 602.7 1014.64 600.24 1014.74 596.68C1014.12 598.06 1012.6 599.14 1010.62 599.14C1007.88 599.14 1005.74 597.08 1005.74 594.28C1005.74 591.36 1007.88 589.42 1010.88 589.42ZM1010.88 590.88C1008.9 590.88 1007.44 592.32 1007.44 594.3C1007.44 596.28 1008.9 597.72 1010.88 597.72C1012.86 597.72 1014.34 596.28 1014.34 594.3C1014.34 592.32 1012.86 590.88 1010.88 590.88Z" fill="#8C8C8C"/>
<path d="M584.628 585.628L565.383 604.873" stroke="black" stroke-opacity="0.2"/>
<path d="M565.383 585.628L584.628 604.873" stroke="black" stroke-opacity="0.2"/>
<path d="M724.005 595.248L426.005 595.248" stroke="black" stroke-opacity="0.2"/>
<path d="M575.005 446.248V744.248" stroke="black" stroke-opacity="0.2"/>
<path d="M419.376 353.924C427.648 353.924 431.3 360.392 431.3 368.444C431.3 379.4 426.372 386.352 418.804 386.352C413.172 386.352 408.684 383.184 408.156 377.64H411.896C412.072 380.852 414.844 383.14 418.804 383.14C424.26 383.14 427.648 377.728 427.868 369.896C426.504 372.932 423.16 375.308 418.804 375.308C412.776 375.308 408.068 370.776 408.068 364.616C408.068 358.192 412.776 353.924 419.376 353.924ZM419.376 357.136C415.02 357.136 411.808 360.304 411.808 364.66C411.808 369.016 415.02 372.184 419.376 372.184C423.732 372.184 426.988 369.016 426.988 364.66C426.988 360.304 423.732 357.136 419.376 357.136ZM448.025 386.352C439.797 386.352 436.145 379.884 436.145 371.832C436.145 360.876 441.073 353.924 448.641 353.924C454.273 353.924 458.761 357.092 459.289 362.636H455.549C455.373 359.424 452.601 357.136 448.641 357.136C443.185 357.136 439.797 362.548 439.577 370.38C440.941 367.344 444.285 364.968 448.641 364.968C454.625 364.968 459.377 369.5 459.377 375.66C459.377 382.084 454.625 386.352 448.025 386.352ZM448.069 383.14C452.425 383.14 455.637 379.972 455.637 375.616C455.637 371.26 452.425 368.092 448.069 368.092C443.713 368.092 440.457 371.26 440.457 375.616C440.457 379.972 443.713 383.14 448.069 383.14ZM463.975 381.6H468.463V386H463.975V381.6ZM473.171 386V382.788L485.271 372.272C488.879 369.06 490.683 366.376 490.683 363.296C490.683 359.556 488.131 357.18 484.259 357.18C479.595 357.18 476.955 360.392 477.483 365.276H473.963C473.523 358.368 477.703 353.924 484.259 353.924C490.419 353.924 494.379 357.62 494.379 363.296C494.379 367.124 492.355 370.644 487.515 374.78L478.275 382.744H494.379V386H473.171ZM505.534 369.852C501.178 369.852 498.098 366.332 498.098 361.888C498.098 357.444 501.178 353.924 505.534 353.924C509.846 353.924 512.926 357.4 512.926 361.888C512.926 366.376 509.846 369.852 505.534 369.852ZM525.642 386.352C521.33 386.352 518.206 382.832 518.206 378.388C518.206 373.944 521.33 370.424 525.642 370.424C529.954 370.424 533.034 373.9 533.034 378.388C533.034 382.876 529.954 386.352 525.642 386.352ZM503.202 386L524.542 354.276H527.93L506.634 386H503.202ZM505.534 367.256C508.174 367.256 509.89 365.1 509.89 361.888C509.89 358.676 508.174 356.52 505.534 356.52C502.894 356.52 501.134 358.676 501.134 361.888C501.134 365.1 502.894 367.256 505.534 367.256ZM525.642 383.756C528.282 383.756 529.998 381.6 529.998 378.388C529.998 375.176 528.282 373.02 525.642 373.02C523.002 373.02 521.242 375.176 521.242 378.388C521.242 381.6 523.002 383.756 525.642 383.756Z" fill="black"/>
<path d="M412.82 417.16C409.56 417.16 407.42 415.2 407.42 412.08V402.58H409.06V412.2C409.06 414.34 410.56 415.68 412.82 415.68C415.1 415.68 416.62 414.34 416.62 412.2V402.58H418.26V412.08C418.26 415.2 416.08 417.16 412.82 417.16ZM421.237 420.74V406.62H422.777V408.2C423.297 407.22 424.737 406.46 426.217 406.46C429.397 406.46 431.137 408.82 431.137 411.8C431.137 414.8 429.377 417.16 426.197 417.16C424.877 417.16 423.477 416.46 422.777 415.46V420.74H421.237ZM426.097 415.78C428.157 415.78 429.557 414.2 429.557 411.8C429.557 409.42 428.157 407.84 426.097 407.84C424.037 407.84 422.637 409.42 422.637 411.8C422.637 414.2 424.037 415.78 426.097 415.78ZM437.095 417.16C435.255 417.16 434.095 416.2 434.095 414.16V407.96H432.115V406.62H434.095V403.44H435.615V406.62H438.315V407.96H435.615V414.1C435.615 415.24 436.195 415.76 437.175 415.76C437.675 415.76 438.075 415.68 438.315 415.6V417C438.055 417.06 437.575 417.16 437.095 417.16ZM440.513 417V406.62H442.053V417H440.513ZM440.373 404.68V402.58H442.193V404.68H440.373ZM445.171 417V406.62H446.711V408.68C447.211 407.36 448.271 406.46 449.871 406.46C451.591 406.46 452.951 407.26 453.311 408.68C453.891 407.38 455.131 406.46 456.631 406.46C458.851 406.46 460.251 407.82 460.251 410.06V417H458.711V410.34C458.711 408.84 457.851 407.84 456.331 407.84C454.491 407.84 453.471 409.52 453.471 411.82V417H451.931V410.34C451.931 408.84 451.091 407.84 449.591 407.84C447.731 407.84 446.711 409.52 446.711 411.82V417H445.171ZM464.147 412C464.227 414.38 465.587 415.8 467.587 415.8C469.107 415.8 470.387 415.06 470.627 413.72H472.107C471.727 415.98 469.867 417.16 467.587 417.16C464.527 417.16 462.587 414.82 462.587 411.8C462.587 408.8 464.487 406.46 467.547 406.46C470.407 406.46 472.207 408.56 472.187 411.3C472.187 411.62 472.147 411.9 472.147 412H464.147ZM467.547 407.78C465.767 407.78 464.567 408.92 464.247 410.7H470.547C470.427 409.02 469.367 407.78 467.547 407.78ZM478.857 410.34C478.857 407.44 479.777 404.36 481.397 401.94H482.797C481.257 404.6 480.377 407.68 480.377 410.34C480.377 413.02 481.257 416.1 482.797 418.76H481.397C479.777 416.34 478.857 413.26 478.857 410.34ZM487.413 409.66C485.433 409.66 484.033 408.06 484.033 406.04C484.033 404.02 485.433 402.42 487.413 402.42C489.373 402.42 490.773 404 490.773 406.04C490.773 408.08 489.373 409.66 487.413 409.66ZM496.553 417.16C494.593 417.16 493.173 415.56 493.173 413.54C493.173 411.52 494.593 409.92 496.553 409.92C498.513 409.92 499.913 411.5 499.913 413.54C499.913 415.58 498.513 417.16 496.553 417.16ZM486.353 417L496.053 402.58H497.593L487.913 417H486.353ZM487.413 408.48C488.613 408.48 489.393 407.5 489.393 406.04C489.393 404.58 488.613 403.6 487.413 403.6C486.213 403.6 485.413 404.58 485.413 406.04C485.413 407.5 486.213 408.48 487.413 408.48ZM496.553 415.98C497.753 415.98 498.533 415 498.533 413.54C498.533 412.08 497.753 411.1 496.553 411.1C495.353 411.1 494.553 412.08 494.553 413.54C494.553 415 495.353 415.98 496.553 415.98ZM505.113 410.34C505.113 413.26 504.193 416.34 502.573 418.76H501.173C502.713 416.1 503.593 413.02 503.593 410.34C503.593 407.68 502.713 404.6 501.173 401.94H502.573C504.193 404.36 505.113 407.44 505.113 410.34Z" fill="#8C8C8C"/>
<path d="M334.123 837.123C286.434 789.434 253.957 728.673 240.799 662.526C227.641 596.378 234.394 527.814 260.204 465.505C286.013 403.195 329.72 349.938 385.797 312.469" stroke="black" stroke-width="21"/>
<path opacity="0.85" d="M334.123 837.123C286.434 789.434 253.957 728.673 240.799 662.526C227.641 596.378 234.394 527.815 260.204 465.505C286.013 403.195 329.72 349.938 385.797 312.469C441.875 274.999 507.803 255 575.247 255C642.69 255 708.619 274.999 764.696 312.469C820.773 349.938 864.48 403.195 890.29 465.505C916.099 527.815 922.852 596.378 909.695 662.526C896.537 728.673 864.06 789.434 816.37 837.123" stroke="black" stroke-width="49" stroke-dasharray="1 6"/>
</svg>
