<svg xmlns="http://www.w3.org/2000/svg" width="52.535" height="23.055" viewBox="105.6 113 13.9 6.1"><rect x="105.6" y="113" width="13.9" height="6.1" fill="#001023"/><g style="fill:#3884ee;fill-opacity:1;stroke:none"><circle cx="114.046" cy="116.002" r=".533"/><circle cx="107.417" cy="119.091" r=".533"/><circle cx="106.845" cy="116.107" r=".533"/><circle cx="110.503" cy="113.16" r=".533"/><circle cx="105.562" cy="117.059" r=".533"/><circle cx="116.078" cy="117.018" r=".533"/><circle cx="107.6" cy="112.922" r=".533"/></g><path d="M116.667 120.238l1.169-1.169m0 .001h4.19" style="fill:none;stroke:#3884ee;stroke-width:.2032;stroke-opacity:1;stroke-linecap:round;stroke-linejoin:round"/><path d="M106.66 120.11l-2.21-2.21m18.334 .148l-5.69-5.69" style="fill:none;stroke:#3884ee;stroke-width:.254;stroke-opacity:1;stroke-linecap:round;stroke-linejoin:round"/><g style="fill:none;stroke:#3884ee;stroke-width:1.27;stroke-opacity:1;stroke-linecap:round;stroke-linejoin:round"><path d="M123.698 115.341l-4.978-4.978"/></g><g style="fill:#fa4034;fill-opacity:1;stroke:none"><path d="M105.156 117.77h.559v.508h-.559zm0 1.067h.559v.508h-.559zm1.016-1.067h.559v.508h-.559zm0 1.067h.559v.508h-.559zm2.032-5.499v-.559h.508v.56zm1.066 0v-.559h.509v.56zm6.071 3.4v.56h-.508v-.56zm-1.066 0v.56h-.508v-.56z" style="fill:#fa4034;fill-opacity:1;stroke:none;fill-rule:evenodd"/><circle cx="111.968" cy="119.577" r=".635"/><circle cx="111.486" cy="114.294" r=".635"/></g><g style="fill:#fa4034;fill-opacity:1;stroke:none"><path d="M105.545 115.112h-5.3v-5.3h5.3Z" style="fill:#fa4034;fill-opacity:1;stroke:none;fill-rule:evenodd"/></g><path d="M105.645 116.222v-.62m1.01-.39h-.62m.62-.5h-.62m.62-.5h-.62m.62-.5h-.62m.62-.5h-.62" style="fill:none;stroke:#fa4034;stroke-width:.28;stroke-opacity:1;stroke-linecap:round;stroke-linejoin:round"/><g style="fill:#fa4034;fill-opacity:1;stroke:none"><path d="M117.994 113.165v-.295h1.502v.295zm0 .5v-.295h1.502v.295zm0 .5v-.294h1.502v.294zm0 .501v-.295h1.502v.295zm0 .5v-.294h1.502v.294zm0 .498v-.295h1.502v.295zm0 .5v-.294h1.502v.294zm0 .501v-.295h1.502v.295zm0 .5v-.294h1.502v.294zm0 .501v-.295h1.502v.294zm0 .5v-.295h1.502v.295zm0 .5v-.294h1.502v.294zm0 .498v-.294h1.502v.294z" style="fill:#fa4034;fill-opacity:1;stroke:none;fill-rule:evenodd"/></g><g style="fill:#fa4034;fill-opacity:1;stroke:none"><circle cx="114.046" cy="116.002" r=".533"/><circle cx="107.417" cy="119.091" r=".533"/><circle cx="106.845" cy="116.107" r=".533"/><circle cx="110.503" cy="113.16" r=".533"/><circle cx="105.562" cy="117.059" r=".533"/><circle cx="116.078" cy="117.018" r=".533"/><circle cx="107.6" cy="112.922" r=".533"/></g><path d="M108.38 115.213h-2.035m4.963 3.704v-.776m0-.001l-2.928-2.927m3.588 4.364l-.66-.66m-2.844-4.205h-2.12m12.401 4.305h-1.567m-.175 .175l.175-.175m-4.234 .175l-4.48-4.48m4.48 4.48h4.059m-8.455-4.98h-2.203m12.4 4.307h-1.654m-.261 .261l.261-.261m-3.975 .261l-4.568-4.568m4.568 4.568h3.714m-5.319-4.46v1.687m0-1.738v-2.464m5.413 5.713l-.44 .44m0 0h-3.022m0 0l-1.95-1.951m5.412 1.511h1.821m-7.259-3.224l.025 .025m-.025-.025l.025-.025m5.362 2.248l-5.932-5.931m7.804 5.931h-1.872m1.872-.5h-1.793m-5.838-5.837l5.838 5.837m1.793-.5h-1.719m.001 0l-3.128-3.128m3.204 2.63h1.642m-3.906-2.265l2.264 2.265m1.642-.501h-1.567m0 0l-1.984-1.983m3.551 1.483h-1.493m0 0l-1.702-1.702m.355-.271l.973 .972m0 0h1.867" style="fill:none;stroke:#fa4034;stroke-width:.2032;stroke-opacity:1;stroke-linecap:round;stroke-linejoin:round"/><path d="M106.345 113.211h-2.7" style="fill:none;stroke:#fa4034;stroke-width:.254;stroke-opacity:1;stroke-linecap:round;stroke-linejoin:round"/><path d="M105.646 115.911h1.004" style="fill:none;stroke:#fa4034;stroke-width:.254;stroke-opacity:1;stroke-linecap:round;stroke-linejoin:round"/><path d="M114.02 116.027l.026-.025" style="fill:none;stroke:#fa4034;stroke-width:.508;stroke-opacity:1;stroke-linecap:round;stroke-linejoin:round"/><path d="M109.525 113.059h.876" style="fill:none;stroke:#fa4034;stroke-width:.508;stroke-opacity:1;stroke-linecap:round;stroke-linejoin:round"/><path d="m106.65 115.911.195.196" style="fill:none;stroke:#fa4034;stroke-width:.254;stroke-opacity:1;stroke-linecap:round;stroke-linejoin:round"/><path d="M114.02 117.018v-.99" style="fill:none;stroke:#fa4034;stroke-width:.508;stroke-opacity:1;stroke-linecap:round;stroke-linejoin:round"/><path d="M105.435 119.091v.811" style="fill:none;stroke:#fa4034;stroke-width:.508;stroke-opacity:1;stroke-linecap:round;stroke-linejoin:round"/><path d="M110.401 113.059l.102 .101" style="fill:none;stroke:#fa4034;stroke-width:.508;stroke-opacity:1;stroke-linecap:round;stroke-linejoin:round"/><path d="M106.451 119.091h.966" style="fill:none;stroke:#fa4034;stroke-width:.508;stroke-opacity:1;stroke-linecap:round;stroke-linejoin:round"/><path d="M118.745 113.518h1.148" style="fill:none;stroke:#fa4034;stroke-width:.254;stroke-opacity:1;stroke-linecap:round;stroke-linejoin:round"/><path d="M105.562 117.897l-.127 .127" style="fill:none;stroke:#fa4034;stroke-width:.508;stroke-opacity:1;stroke-linecap:round;stroke-linejoin:round"/><path d="M105.562 117.06v.837" style="fill:none;stroke:#fa4034;stroke-width:.508;stroke-opacity:1;stroke-linecap:round;stroke-linejoin:round"/><path d="m105.146 116.643.416.416" style="fill:none;stroke:#fa4034;stroke-width:.254;stroke-opacity:1;stroke-linecap:round;stroke-linejoin:round"/><path d="M106.451 118.024h-1.016" style="fill:none;stroke:#fa4034;stroke-width:.508;stroke-opacity:1;stroke-linecap:round;stroke-linejoin:round"/><path d="m107.388 112.71.212.212" style="fill:none;stroke:#fa4034;stroke-width:.254;stroke-opacity:1;stroke-linecap:round;stroke-linejoin:round"/><path d="M107.6 112.574v.348" style="fill:none;stroke:#fa4034;stroke-width:.508;stroke-opacity:1;stroke-linecap:round;stroke-linejoin:round"/><path d="M108.423 113.024h-.722m0 0l-.101-.102" style="fill:none;stroke:#fa4034;stroke-width:.508;stroke-opacity:1;stroke-linecap:round;stroke-linejoin:round"/><path d="M108.458 113.059l-.035-.035" style="fill:none;stroke:#fa4034;stroke-width:.508;stroke-opacity:1;stroke-linecap:round;stroke-linejoin:round"/><path d="M115.087 117.018h.991" style="fill:none;stroke:#fa4034;stroke-width:.508;stroke-opacity:1;stroke-linecap:round;stroke-linejoin:round"/><path d="M116.078 117.018h2.667" style="fill:none;stroke:#fa4034;stroke-width:.2794;stroke-opacity:1;stroke-linecap:round;stroke-linejoin:round"/><g style="fill:none;stroke:#f7f0a8;stroke-width:.1;stroke-opacity:1;stroke-linecap:round;stroke-linejoin:round"><g class="stroked-text"><path d="M105.577 118.815l.02 .019m-.001 0l.02 .057m-.001 0v.038m0 .001l-.019 .056m0 0l-.038 .038m0 .001l-.038 .018m0 .001l-.076 .019m-.229-.648l.4 .171m-.171-.533h.095m.001 0l.037 .02m0-.001l.02 .02m-.001-.001l.02 .038m-.001 .001v.095m0 0l-.019 .038m0 0l-.019 .019"/></g><g class="stroked-text"><path d="m106.593 118.815.02.019m-.001 0 .02.057m-.001 0v.038m0 .001-.019.056m0 0-.038.038m0 .001-.038.018m0 .001-.076.019m0 0h-.057m0 0-.077-.02m.001.001-.039-.02m0 .001-.038-.039m0 0-.019-.057m0 .001v-.039m0 0 .02-.057m-.001 0 .02-.02m-.039-.132v-.267m0 0 .4.171m-.4-.495v.076m0 0 .02.038m-.001 0 .02.02m0 0 .056.038m.001 0 .076.019m0 0h.152m0 0 .038-.02m0 .001.02-.02m-.001.001.02-.039m-.001 0v-.076m0 .001-.019-.039m0 0-.019-.019m0 0-.038-.019m0 0h-.095m0 0-.038.02m0-.001-.02.02m.001-.001-.02.038m.001.001v.075m0 0 .019.038m0 .001.019.019m0 0 .038.019"/></g></g><g style="fill:none;stroke:#f7f0a8;stroke-width:.1;stroke-opacity:1;stroke-linecap:round;stroke-linejoin:round"><g class="stroked-text"><path d="M108.544 113.2l-.02 .02m.001 0l-.057 .019m0 0h-.038m0 0l-.058-.02m0 .001l-.038-.039m0 0l-.019-.038m0 0l-.019-.076m0 0v-.057m0 0l.02-.076m-.001 0l.02-.038m-.001 0l.038-.038m0 0l.058-.02m.038 .001l.057 .019m0 0l.019 .019m.381 .362h-.229m.114 0v-.4m0 0l-.038 .057m0 0l-.038 .038m0 0l-.038 .019m.381-.076l.02-.02m-.001 .001l.038-.02m.096 .001l.038 .019m0 0l.019 .019m0 0l.019 .038m0 0v.038m0 0l-.02 .057m.001 0l-.229 .228m0 .001h.248m.381-.4l-.134 .152m0-.001h.057m0 0l.038 .02m.001 0l.019 .019m0 0l.019 .038m0 0v.095m0 0l-.02 .038m.001 0l-.02 .02m.001 0l-.039 .019m0 0h-.114m0 0l-.038-.02m0 .001l-.019-.02"/></g></g><g style="fill:none;stroke:#f7f0a8;stroke-width:.1;stroke-opacity:1;stroke-linecap:round;stroke-linejoin:round"><g class="stroked-text"><path d="m114.106 117.16-.019.019m0 0-.057.019m0 0h-.038m0 0-.057-.02m0 .001-.038-.038m0-.001-.02-.038m.001 0-.02-.076m.001 0v-.057m0 .001.019-.077m0 0 .019-.038m0 0 .038-.038m0 0 .057-.02m0 .001h.038m0 0 .057.019m0 0 .02.019m.38.362h-.228m.114 0v-.4m0 0-.038.057m0 0-.038.038m0 0-.038.019m.591-.114h-.191m0 0-.02.19m.001 0 .019-.019m0 .001.038-.02m0 0h.095m0 0 .038.02m0 0 .02.018m0 0 .018.038m0 0v.096m0 0-.019.038m.001 0-.02.019m0 0-.038.019m0 0h-.095m0 0-.038-.02m0 .001-.02-.02m.363-.361h.247m.001 0-.134.152m0 0h.057m0 0 .038.02m0 0 .02.018m-.001 0 .02.038m0 0v.096m0 0-.02.038m0 0-.019.019m0 0-.038.019m0 0h-.114m0 0-.038-.02m-.001.001-.018-.02"/></g></g><g style="fill:none;stroke:#f7f0a8;stroke-width:.0953;stroke-opacity:1;stroke-linecap:round;stroke-linejoin:round"><g class="stroked-text"><path d="M111.023 114.465v-.38m0-.001h.145m0 0 .037.018m0 0 .018.019m0-.001.018.037m-.001 0v.054m0 0-.017.037m0 0-.018.018m0 0-.037.018m0 0h-.145m.544-.2h-.072m0 0-.036.018m0 0-.019.019m0-.001-.036.055m0 0-.018.073m0 0v.145m0 0 .018.036m0 0 .018.018m0 0 .037.018m0 0h.072m0 0 .036-.018m0 0 .019-.018m0 0 .018-.036m0 0v-.091m0 0-.018-.036m0 0-.019-.018m0 0-.036-.019m0 .001h-.072m0 0-.037.018m0 0-.018.018m0 0-.018.036m.562-.218h-.181m0 0-.018.182m0 0 .018-.018m0 0 .036-.019m0 .001h.091m0 0 .036.018m0 0 .018.018m0 0 .019.036m0 0v.09m0 .001-.019.036m0 0-.018.018m0 0-.036.018m0 0h-.09m-.001 0-.036-.018m0 0-.018-.018"/></g></g><path d="M105.054 117.669h.762m0 0v1.778m1.016-1.778v1.778m-.762-1.778h.762m-.762 1.778v-1.778" style="fill:none;stroke:#f7f0a8;stroke-width:.2;stroke-opacity:1;stroke-linecap:round;stroke-linejoin:round"/><path d="M108.102 113.44v-.762m1.778 0v.762m0 0h-1.778" style="fill:none;stroke:#f7f0a8;stroke-width:.2;stroke-opacity:1;stroke-linecap:round;stroke-linejoin:round"/><path d="M113.665 116.637h1.778m0 0v.762m0 0h-1.778m0 0v-.762" style="fill:none;stroke:#f7f0a8;stroke-width:.2;stroke-opacity:1;stroke-linecap:round;stroke-linejoin:round"/><g style="fill:none;stroke:#f7f0a8;stroke-width:.2032;stroke-opacity:1;stroke-linecap:round;stroke-linejoin:round"><circle cx="111.968" cy="119.577" r=".711"/><circle cx="111.486" cy="114.294" r=".711"/></g><g style="fill:none;stroke:#f7f0a8;stroke-width:.2032;stroke-opacity:1;stroke-linecap:round;stroke-linejoin:round"><path d="M106.396 115.962v-.401m-.402 .401h.401"/></g><g style="fill:#fff;fill-opacity:1;stroke:none"><circle cx="114.046" cy="116.002" r=".318"/><circle cx="107.417" cy="119.091" r=".318"/><circle cx="106.845" cy="116.107" r=".318"/><circle cx="110.503" cy="113.16" r=".318"/><circle cx="105.562" cy="117.059" r=".318"/><circle cx="116.078" cy="117.018" r=".318"/><circle cx="107.6" cy="112.922" r=".318"/></g></svg>