<svg width="233" height="310" viewBox="0 0 233 310" fill="none" xmlns="http://www.w3.org/2000/svg">
<g id="Layer_1" clip-path="url(#clip0_0_4)">
<g id="component-2">
<path id="carrying-handle" d="M223.239 91.2629L223.154 15.2576C223.154 13.5623 222.048 11.2171 220.035 11.1889L217.569 11.1606L116.217 11.1041L15.0058 11.2171L12.5677 11.2454C10.8667 11.2737 9.59092 13.3363 9.59092 14.862L9.36411 91.2064L6.52908 91.2912L6.30228 46.6769L6.50073 1.46925C6.50073 0.988917 7.43629 0.310802 7.8332 0.310802L13.3332 0.254293L174.25 0.141274L224.997 0.339057C225.592 0.339057 226.046 1.29972 226.301 1.66703V91.0086C226.301 91.6585 224.515 91.2912 223.239 91.2629Z" fill="white" stroke="#8C8C8C" stroke-miterlimit="10"/>
<path id="Vector" d="M220.972 77.0249L11.7461 77.1661L11.6327 305.465L25.7795 305.832L220.603 305.86L221.057 305.436L220.972 77.0249Z" fill="white" stroke="#8C8C8C" stroke-miterlimit="10"/>
</g>

<g id="component-5">
<path id="control-panel" d="M221.084 75.2707L11.8873 75.2424C11.8022 72.8408 10.4414 66.1161 13.2198 66.1161L220.858 66.1444L221.169 66.3139L221.084 75.2707Z" fill="#8C8C8C"/>
</g>


<g id="component-10">
<path id="volume-knob" d="M199.811 65.0703L183.878 65.097L183.821 57.4391C184.048 57.3457 184.445 57.0656 184.87 57.0656L190.427 57.0255L198.734 57.0656C199.074 57.0656 199.811 57.2123 199.811 57.4525V65.0703Z" fill="black"/>
</g>
<g id="component-10_2">
<path id="volume-knob_2" d="M178.88 65.0716L162.863 65.0983L162.806 57.4384C163.034 57.345 163.433 57.0648 163.861 57.0648L169.447 57.0248L177.797 57.0648C178.139 57.0648 178.88 57.2116 178.88 57.4518V65.0716Z" fill="black"/>
</g>
<g id="component-11">
<path id="handle-pivot" d="M0.46211 89.5309L0.141752 89.8502V96.7104C0.144587 102.008 0.170102 103.627 0.260823 103.808C0.487626 104.26 0.927055 104.393 1.98169 104.328C3.43322 104.235 3.54379 104.074 3.54379 102.017C3.54379 100.124 3.45874 100.228 4.9443 100.228C6.42985 100.228 6.37882 100.138 6.37882 101.76C6.37882 103.554 6.35047 103.525 8.17623 103.525C8.91334 103.525 9.59091 103.483 9.69297 103.427C9.91694 103.308 9.98498 92.3705 9.76102 92.1473C9.59658 91.9862 6.60846 91.989 6.50356 92.1529C6.46104 92.2179 6.40434 92.5033 6.37882 92.7886L6.33063 93.3057L5.01517 93.334C4.02575 93.3537 3.67987 93.3283 3.62317 93.2379C3.58065 93.1729 3.54379 92.4044 3.54379 91.5341C3.54379 89.2879 3.48992 89.2144 1.85695 89.2116H0.782469L0.46211 89.5309Z" fill="black"/>
<path id="handle-pivot_2" d="M0.46211 89.5309L0.141752 89.8502V96.7104C0.144587 102.008 0.170102 103.627 0.260823 103.808C0.487626 104.26 0.927055 104.393 1.98169 104.328C3.43322 104.235 3.54379 104.074 3.54379 102.017C3.54379 100.124 3.45874 100.228 4.9443 100.228C6.42985 100.228 6.37882 100.138 6.37882 101.76C6.37882 103.554 6.35047 103.525 8.17623 103.525C8.91334 103.525 9.59091 103.483 9.69297 103.427C9.91694 103.308 9.98498 92.3705 9.76102 92.1473C9.59658 91.9862 6.60846 91.989 6.50356 92.1529C6.46104 92.2179 6.40434 92.5033 6.37882 92.7886L6.33063 93.3057L5.01517 93.334C4.02575 93.3537 3.67987 93.3283 3.62317 93.2379C3.58065 93.1729 3.54379 92.4044 3.54379 91.5341C3.54379 89.2879 3.48992 89.2144 1.85695 89.2116H0.782469L0.46211 89.5309Z" fill="#1D1D1B"/>
<path id="handle-pivot_3" d="M0.46211 89.5309L0.141752 89.8502V96.7104C0.144587 102.008 0.170102 103.627 0.260823 103.808C0.487626 104.26 0.927055 104.393 1.98169 104.328C3.43322 104.235 3.54379 104.074 3.54379 102.017C3.54379 100.124 3.45874 100.228 4.9443 100.228C6.42985 100.228 6.37882 100.138 6.37882 101.76C6.37882 103.554 6.35047 103.525 8.17623 103.525C8.91334 103.525 9.59091 103.483 9.69297 103.427C9.91694 103.308 9.98498 92.3705 9.76102 92.1473C9.59658 91.9862 6.60846 91.989 6.50356 92.1529C6.46104 92.2179 6.40434 92.5033 6.37882 92.7886L6.33063 93.3057L5.01517 93.334C4.02575 93.3537 3.67987 93.3283 3.62317 93.2379C3.58065 93.1729 3.54379 92.4044 3.54379 91.5341C3.54379 89.2879 3.48992 89.2144 1.85695 89.2116H0.782469L0.46211 89.5309Z" stroke="#1D1D1B" stroke-miterlimit="10"/>
</g>
<g id="component-12">
<path id="handle-pivot-2" d="M229.85 89.4857L229.541 89.7597L229.448 91.5341L229.354 93.3057L227.942 93.334C226.389 93.3622 226.338 93.3453 226.358 92.8197C226.386 92.0795 226.289 92.0343 224.586 92.0343C223.576 92.0343 223.058 92.071 223.015 92.1416C222.896 92.3309 222.893 103.232 223.012 103.325C223.225 103.494 225.581 103.551 225.887 103.393C226.264 103.201 226.281 103.121 226.281 101.768C226.281 100.135 226.185 100.228 227.883 100.228C229.581 100.228 229.4 100.067 229.402 101.861C229.402 104.108 229.527 104.28 231.177 104.28C232.181 104.28 232.226 104.269 232.493 104.02L232.77 103.76L232.83 100.256C232.904 95.9165 232.824 90.1073 232.688 89.7456C232.45 89.124 230.463 88.9404 229.85 89.4857Z" fill="black"/>
<path id="handle-pivot-2_2" d="M229.85 89.4857L229.541 89.7597L229.448 91.5341L229.354 93.3057L227.942 93.334C226.389 93.3622 226.338 93.3453 226.358 92.8197C226.386 92.0795 226.289 92.0343 224.586 92.0343C223.576 92.0343 223.058 92.071 223.015 92.1416C222.896 92.3309 222.893 103.232 223.012 103.325C223.225 103.494 225.581 103.551 225.887 103.393C226.264 103.201 226.281 103.121 226.281 101.768C226.281 100.135 226.185 100.228 227.883 100.228C229.581 100.228 229.4 100.067 229.402 101.861C229.402 104.108 229.527 104.28 231.177 104.28C232.181 104.28 232.226 104.269 232.493 104.02L232.77 103.76L232.83 100.256C232.904 95.9165 232.824 90.1073 232.688 89.7456C232.45 89.124 230.463 88.9404 229.85 89.4857Z" fill="#1D1D1B"/>
<path id="handle-pivot-2_3" d="M229.85 89.4857L229.541 89.7597L229.448 91.5341L229.354 93.3057L227.942 93.334C226.389 93.3622 226.338 93.3453 226.358 92.8197C226.386 92.0795 226.289 92.0343 224.586 92.0343C223.576 92.0343 223.058 92.071 223.015 92.1416C222.896 92.3309 222.893 103.232 223.012 103.325C223.225 103.494 225.581 103.551 225.887 103.393C226.264 103.201 226.281 103.121 226.281 101.768C226.281 100.135 226.185 100.228 227.883 100.228C229.581 100.228 229.4 100.067 229.402 101.861C229.402 104.108 229.527 104.28 231.177 104.28C232.181 104.28 232.226 104.269 232.493 104.02L232.77 103.76L232.83 100.256C232.904 95.9165 232.824 90.1073 232.688 89.7456C232.45 89.124 230.463 88.9404 229.85 89.4857Z" stroke="#1D1D1B" stroke-miterlimit="10"/>
</g>
<g id="component-13">
<path id="play-button" d="M50.8293 62.9064C50.1971 62.9855 49.8172 64.1157 50.0752 65.147L50.1347 65.3815H60.046C68.6305 65.3815 69.9686 65.3618 70.0678 65.2431C70.1982 65.0905 70.116 63.5789 69.9629 63.2879C69.722 62.8273 69.9629 62.8386 60.2246 62.8527C55.2179 62.8612 50.9909 62.8866 50.8293 62.9064Z" fill="black"/>
</g>
<g id="component-13_2">
<path id="play-button_2" d="M77.059 62.9064C76.4268 62.9855 76.0469 64.1157 76.3049 65.147L76.3645 65.3815H86.2757C94.8602 65.3815 96.1984 65.3618 96.2976 65.2431C96.428 65.0905 96.3458 63.5789 96.1927 63.2879C95.9517 62.8273 96.1927 62.8386 86.4543 62.8527C81.4477 62.8612 77.2206 62.8866 77.059 62.9064Z" fill="black"/>
</g>
<g id="component-14">
<path id="input-button" d="M25.5153 62.9064C24.7073 62.9657 24.5769 63.1353 24.523 64.2146C24.4947 64.7543 24.5145 65.1809 24.5684 65.2544C24.6478 65.3617 26.3261 65.3787 34.5392 65.3589L44.4136 65.3335L44.442 64.3672C44.476 63.1466 44.3598 62.994 43.3533 62.9008C42.6871 62.8414 26.3431 62.8471 25.5153 62.9064Z" fill="black"/>
</g>
<g id="component-15">
<path id="support-foot" d="M21.5207 307.214C21.2429 307.268 21.1834 309.717 21.4584 309.822C21.7305 309.926 39.8294 309.887 40.0278 309.782C40.3057 309.633 40.3057 307.395 40.0278 307.245C39.8492 307.152 22.0112 307.121 21.5207 307.214Z" fill="black"/>
</g>
<g id="component-15_2">
<path id="support-foot_2" d="M23.063 305.852C22.8305 305.906 22.7823 308.356 23.012 308.46C23.2388 308.565 38.3155 308.525 38.4799 308.421C38.7124 308.271 38.7124 306.033 38.4799 305.883C38.3325 305.79 23.4741 305.759 23.063 305.852Z" fill="black"/>
</g>
<g id="component-15_3">
<path id="support-foot_3" d="M192.683 307.33C192.405 307.384 192.346 309.833 192.621 309.938C192.893 310.042 210.992 310.003 211.19 309.898C211.468 309.749 211.468 307.511 211.19 307.361C211.011 307.268 193.173 307.237 192.683 307.33Z" fill="black"/>
</g>
<g id="component-15_4">
<path id="support-foot_4" d="M194.225 305.968C193.993 306.022 193.945 308.471 194.174 308.576C194.401 308.68 209.478 308.641 209.642 308.536C209.875 308.387 209.875 306.149 209.642 305.999C209.495 305.906 194.636 305.875 194.225 305.968Z" fill="black"/>
</g>
<path id="Vector_2" d="M19.9416 84.1399H213.776" stroke="#8C8C8C" stroke-miterlimit="10"/>
<path id="Vector_3" d="M19.9416 86.3743H213.776" stroke="#8C8C8C" stroke-miterlimit="10"/>
<path id="Vector_4" d="M19.9416 88.6817H213.776" stroke="#8C8C8C" stroke-miterlimit="10"/>
<path id="Vector_5" d="M19.9416 90.9881H213.776" stroke="#8C8C8C" stroke-miterlimit="10"/>
<path id="Vector_6" d="M19.9416 93.2945H213.776" stroke="#8C8C8C" stroke-miterlimit="10"/>
</g>
<defs>
<clipPath id="clip0_0_4">
<rect width="233" height="310" fill="white"/>
</clipPath>
</defs>
</svg>
