<svg width="33.5713" height="262.464" viewBox="0 0 33.5713 262.464" fill="none" xmlns="http://www.w3.org/2000/svg">
<g id="Group">
<path id="speaker-grille-18" d="M31.2666 0.250121C31.9324 0.250121 32.383 0.254748 32.7002 0.339964C32.8512 0.38056 32.9564 0.436228 33.0342 0.507933C33.1111 0.578926 33.1766 0.679225 33.2256 0.834105C33.3282 1.15828 33.3475 1.6748 33.2861 2.51282C33.2254 3.34202 33.0898 4.44838 32.9063 5.93274V5.93371C32.756 7.15357 32.4956 9.45174 32.3281 11.0402C32.1549 12.6283 31.9019 14.9648 31.752 16.2335L31.751 16.2345C31.6238 17.3299 31.5083 18.3906 31.3379 20.0665L30.5967 27.589C30.4294 29.285 30.1757 31.5318 30.0264 32.5831C29.8755 33.6453 29.615 35.9877 29.4531 37.7911C29.1243 41.3107 28.7208 45.1191 28.2881 48.6554V48.6564C28.2159 49.2657 28.114 50.1335 28.0108 51.0411L27.7217 53.6642C27.5543 55.1992 27.2947 57.5762 27.1445 58.9562C27.0665 59.644 26.9619 60.6165 26.8565 61.6281L26.5606 64.5372C25.9891 70.4074 25.6661 73.3938 25.3955 75.4034C25.2394 76.5195 25.1162 77.8446 25.1162 78.3595C25.1162 78.8325 24.991 80.2035 24.8408 81.3995C24.6845 82.6037 24.4195 84.9723 24.252 86.671C24.0787 88.3629 23.8535 90.4793 23.7441 91.3771C23.634 92.2815 23.4724 93.9289 23.3799 95.045C23.2819 96.1515 23.1199 97.7061 23.0166 98.4982C22.9122 99.293 22.6928 101.288 22.5254 102.928C22.3581 104.566 22.0982 106.949 21.9483 108.218V108.219C21.8039 109.489 21.5385 111.869 21.3652 113.516C21.1922 115.154 20.9264 117.577 20.7764 118.899C20.6207 120.219 20.4981 121.665 20.4981 122.104C20.498 122.507 20.3729 123.836 20.2168 125.056V125.057C19.922 127.386 19.5637 130.552 19.0557 135.356C18.8884 136.942 18.6227 139.325 18.4727 140.647C18.334 141.84 18.1919 143.125 18.0108 144.805L17.3184 151.33C17.2376 152.123 17.1322 153.104 17.0283 154.045L16.7471 156.523C16.4812 158.806 16.1748 161.805 15.5859 167.976C15.4187 169.718 15.1589 172.234 15.0147 173.555C14.6682 176.604 14.247 180.542 13.8545 184.236C13.6871 185.824 13.4274 188.249 13.2774 189.622C13.1273 190.996 12.867 193.422 12.7109 195.011C12.5494 196.598 12.2839 199.108 12.1279 200.592C11.9663 202.076 11.7007 204.541 11.5391 206.077C10.9675 211.475 10.6676 214.279 10.3906 216.656C10.2289 218.046 10.0455 219.693 9.8506 221.493L9.24122 227.247C9.0796 228.777 8.82562 231.119 8.66993 232.44C8.51393 233.763 8.24859 236.143 8.08106 237.732V237.733C7.91952 239.319 7.65986 241.743 7.50977 243.122C7.38271 244.286 7.28149 245.234 7.11622 246.835L6.3379 254.475C6.11668 256.67 5.96809 258.273 5.82032 259.442C5.67134 260.62 5.52654 261.317 5.32813 261.723C5.23252 261.919 5.13188 262.03 5.02638 262.098C4.92051 262.165 4.78648 262.204 4.59767 262.212C4.40551 262.221 4.17209 262.198 3.87696 262.155C3.56626 262.111 3.25944 262.056 2.84083 261.994H2.84181C2.20975 261.901 1.71991 261.815 1.34181 261.72C0.961168 261.624 0.713698 261.523 0.552744 261.411C0.402136 261.306 0.324088 261.189 0.284189 261.035C0.2409 260.868 0.239788 260.647 0.276376 260.331C0.339882 259.788 0.518956 258.259 0.674814 256.937C1.20599 252.404 1.35586 251.063 1.65626 247.984C1.78184 246.715 1.93676 245.253 2.04981 244.27L2.14649 243.471C2.25088 242.671 2.41246 241.196 2.51075 240.19C2.60864 239.188 2.86859 236.863 3.0879 235.027C3.30747 233.19 3.57265 230.676 3.68263 229.443C3.79202 228.211 4.08697 225.425 4.34083 223.262C4.60069 221.091 4.94667 218.013 5.11427 216.424C5.28734 214.837 5.54727 212.588 5.69142 211.429C5.76662 210.845 5.86891 209.989 5.97364 209.081L6.26856 206.418C6.94388 200.115 7.17496 198.055 7.42872 195.933C7.57903 194.713 7.83353 192.466 8.00099 190.93C8.16801 189.398 8.38854 187.398 8.48634 186.501L8.48536 186.5C8.58921 185.6 8.72223 184.349 8.78028 183.711C8.8435 183.079 9.01703 181.563 9.167 180.346C9.24506 179.736 9.34694 178.889 9.4502 178.017L9.73829 175.533C9.89981 174.103 10.1595 171.938 10.3096 170.727C10.46 169.506 10.7201 167.079 10.8877 165.328C11.055 163.586 11.3149 161.076 11.4649 159.756C12.0826 154.485 12.3536 152.023 12.6367 149.163C12.7982 147.525 13.1446 144.324 13.4043 142.05C13.6699 139.775 14.0568 136.398 14.2647 134.544C14.4783 132.691 14.773 130.14 14.9287 128.871V128.87C15.0789 127.599 15.3442 125.26 15.5117 123.671C15.6791 122.084 15.9447 119.613 16.1006 118.188V118.187C16.3603 115.78 16.4937 114.603 17.2441 107.987V107.986C17.6713 104.177 18.1099 100.384 18.4043 97.8849C18.5546 96.6131 18.8139 94.2274 18.9815 92.587C19.1488 90.9478 19.4029 88.571 19.5527 87.3029C19.703 86.0315 19.9632 83.6917 20.125 82.1027C20.2865 80.5166 20.5513 78.1335 20.707 76.8126C20.8631 75.4893 21.1175 73.1906 21.2734 71.712C22.1336 63.5723 22.555 59.7865 23.0166 55.9318C23.2679 53.8264 23.565 51.2046 23.8682 48.3956L24.1719 45.5363C24.3394 43.9482 24.5931 41.5239 24.7432 40.1505C24.8933 38.7762 25.0672 37.0838 25.1309 36.3947V36.3917C25.1882 35.7096 25.3205 34.5423 25.4238 33.8077V33.8068C25.8226 30.8709 26.1925 27.6867 26.4815 24.6583C26.6489 22.909 26.8674 20.8341 26.9707 20.048V20.047C27.2538 17.8167 27.8605 12.5743 28.207 9.26477C28.3859 7.62613 28.6513 5.43537 28.8008 4.40637C28.9508 3.37363 29.0801 2.14463 29.0801 1.68567C29.0801 1.17691 29.1943 0.869293 29.4277 0.616332C29.5158 0.522883 29.5837 0.46203 29.6533 0.418089C29.7204 0.375816 29.7998 0.342959 29.916 0.317503C30.1641 0.263198 30.5454 0.250121 31.2666 0.250121Z" stroke="black" stroke-width="0.5"/>
</g>
</svg>
